<?xml version="1.0" encoding="utf-8"?>
<svg id="master-artboard" viewBox="0 0 1400 980" version="1.1" xmlns="http://www.w3.org/2000/svg" x="0px" y="0px" width="1400px" height="980px" enable-background="new 0 0 1400 980">



<g id="XMLID_789_">
	<path id="XMLID_788_" fill="#BDE1C8" d="M788.628,182.115c0,0,93.274,19.589,134.662,63.16&#10;&#9;&#9;c4.171-33.786-8.357-42.801-22.163-46.029c3.886-18.699-3.7-27.652-12.824-33.354c-9.123-5.702-27.031-3.253-33.956,7.33&#10;&#9;&#9;c-5.46-13.031-16.771-14.941-24.876-10.322c-8.105,4.619-9.008,10.322-9.008,10.322S803.933,160.07,788.628,182.115z"/>
	<path id="XMLID_787_" fill="#BDE1C8" d="M756.54,185.788c1.557,0.32,66.787,13.245,90.645,27.522c0,0,6.362-27.522-11.761-27.522&#10;&#9;&#9;c-3.4-14.657-4.021-23.886-20.029-26.057s-22.483,14.931-22.483,14.931s1.507-13.14-9.852-15.121s-16.601,9.851-16.601,9.851&#10;&#9;&#9;s-14.398-9.656-27.649,5.271c-17.509-7.874-24.147,7.329-24.147,7.329S740.997,182.593,756.54,185.788z"/>
	<path id="XMLID_1143_" fill="#BDE1C8" d="M1046.851,528.75c0,0-1.019,95.303-35.678,144.396c33.95-2.5,40.349-16.546,40.821-30.716&#10;&#9;&#9;c19.099,0.163,26.399-9.023,30.212-19.085c3.813-10.061-2.082-27.146-13.812-31.874c11.715-7.897,11.382-19.362,5.271-26.411&#10;&#9;&#9;s-11.881-6.822-11.881-6.822S1071.457,539.46,1046.851,528.75z"/>
	<path id="XMLID_1142_" fill="#BDE1C8" d="M1036.988,497.995c-0.01,1.589,0.038,68.087-9.312,94.271c0,0,28.235,0.872,24.699-16.903&#10;&#9;&#9;c13.712-6.195,22.643-8.603,21.649-24.728s-19.029-19.14-19.029-19.14s13.182-1.085,12.909-12.611&#10;&#9;&#9;c-0.273-11.527-12.899-14.359-12.899-14.359s6.661-16.006-10.563-26.091c4.307-18.708-11.898-22.254-11.898-22.254&#10;&#9;&#9;S1037.09,482.127,1036.988,497.995z"/>
	<path id="XMLID_786_" fill="#BDE1C8" d="M540.901,240.273c44.754-23.447,94.199-36.854,148.596-39.662&#10;&#9;&#9;c0,0-4.38-10.263-15.199-8.703c-5.375-8.753-14.587-6.701-19.76-4.199c-9.949-6.183-21.674-10.082-29.98-2.161&#10;&#9;&#9;c-11.742-12.708-23.284-21.389-41.581-14.062c-18.297,7.326-13.26,34.144-13.26,34.144s-15.293-6.614-18.851,7.169&#10;&#9;&#9;C539.436,222.784,535.579,227.906,540.901,240.273z"/>
	<path id="XMLID_960_" fill="#BDE1C8" d="M586.447,228.639c-13.855-11.451-24.799-3.975-24.799-3.975s-10.489-11.019-20.327-5.719&#10;&#9;&#9;c-9.838,5.3-8.904,21.328-8.904,21.328s-7.56,2.12-7.56,13.435c0,4.737,0,4.737,0,4.737S553.196,234.678,586.447,228.639z"/>
	<path id="XMLID_1171_" fill="#BDE1C8" d="M974.01,824.456c-38.73,32.444-84.183,56.079-136.732,70.413&#10;&#9;&#9;c0,0,6.466,9.094,16.704,5.264c7.116,7.407,15.68,3.439,20.201-0.107c11.037,3.921,23.324,5.231,29.752-4.276&#10;&#9;&#9;c14.18,9.914,27.307,15.937,43.622,4.88s5.681-36.186,5.681-36.186s16.352,3.204,16.891-11.021&#10;&#9;&#9;C979.168,841.232,981.845,835.405,974.01,824.456z"/>
	<path id="XMLID_1277_" fill="#BDE1C8" d="M611.423,863.132c-49.299-11.061-95.682-32.813-138.986-65.853&#10;&#9;&#9;c0,0-3.297,10.661,5.964,16.468c-1.562,10.152,6.792,14.545,12.355,15.981c3.589,11.15,10.011,21.707,21.469,21.038&#10;&#9;&#9;c0.737,17.286,3.925,31.372,22.619,37.618c18.693,6.245,32.196-17.467,32.196-17.467s7.387,14.936,19.015,6.724&#10;&#9;&#9;C601.229,877.419,607.483,876.007,611.423,863.132z"/>
	<path id="XMLID_1276_" fill="#BDE1C8" d="M569.16,842.549c3.162,17.694,16.344,19.07,16.344,19.07s0.874,15.188,11.805,17.509&#10;&#9;&#9;c10.932,2.32,20.585-10.509,20.585-10.509s7.137,3.272,14.455-5.357c3.063-3.613,3.063-3.613,3.063-3.613&#10;&#9;&#9;S598.426,859.447,569.16,842.549z"/>
	<path id="XMLID_1140_" fill="#BDE1C8" d="M367.094,470.599c2.841,0.767,3.024-81.966,42.2-144.5&#10;&#9;&#9;c-41.183,6.834-36.216,36.838-36.216,36.838s-30.608-5.253-39.511,23.129c-8.903,28.382,21.494,40.343,21.494,40.343&#10;&#9;&#9;s-7.602,7.556-4.347,16.258c3.255,8.702,3.255,8.702,3.255,8.702S349.826,465.937,367.094,470.599z"/>
	<path id="XMLID_1141_" fill="#BDE1C8" d="M381.013,435.185c-15.909,8.366-13.233,21.347-13.233,21.347s-14.212,5.427-13.117,16.548&#10;&#9;&#9;c1.095,11.122,16.243,16.442,16.243,16.442s-0.96,7.792,9.479,12.157c4.371,1.827,4.371,1.827,4.371,1.827&#10;&#9;&#9;S373.759,468.191,381.013,435.185z"/>
	<g id="XMLID_1652_">
		<path id="XMLID_784_" fill="#BDE1C8" d="M413.306,305.49l-1.251-1.043c11.308-13.567,23.742-26.263,36.958-37.736l1.067,1.229&#10;&#9;&#9;&#9;C436.93,279.356,424.557,291.99,413.306,305.49z"/>
	</g>
	<g id="XMLID_1653_">
		<path id="XMLID_783_" fill="#BDE1C8" d="M340.984,634.229c-10.642-45.099-14.325-85.258-11.261-122.772&#10;&#9;&#9;&#9;c0.947-11.594,2.576-23.11,4.84-34.227l1.595,0.324c-2.251,11.055-3.871,22.505-4.812,34.036&#10;&#9;&#9;&#9;c-3.05,37.342,0.621,77.336,11.223,122.267L340.984,634.229z"/>
	</g>
	<g id="XMLID_781_">
		<path id="XMLID_782_" fill="#BDE1C8" d="M703.032,912.67c-10.965,0-20.956-0.534-30.362-1.619&#10;&#9;&#9;&#9;c-0.61-0.069-61.084-7.099-74.644-13.372l0.684-1.478c11.057,5.116,57.271,11.287,74.146,13.232&#10;&#9;&#9;&#9;c11.421,1.316,23.715,1.819,37.596,1.529c20.979-0.435,42.608-3.13,66.124-8.237l0.346,1.592&#10;&#9;&#9;&#9;c-23.62,5.13-45.352,7.837-66.437,8.274C707.951,912.645,705.467,912.67,703.032,912.67z"/>
	</g>
	<g id="XMLID_779_">
		<path id="XMLID_780_" fill="#BDE1C8" d="M928.328,836.19l-0.972-1.308c25.591-19.043,48.631-41.278,68.479-66.09l1.272,1.018&#10;&#9;&#9;&#9;C977.172,794.73,954.031,817.063,928.328,836.19z"/>
	</g>
	<g id="XMLID_1651_">
		<path id="XMLID_778_" fill="#BDE1C8" d="M355.433,616.143c-9.065-44.169-11.271-86.201-6.556-124.927l1.616,0.197&#10;&#9;&#9;&#9;c-4.693,38.551-2.495,80.406,6.535,124.401L355.433,616.143z"/>
	</g>
	<g id="XMLID_1649_">
		<path id="XMLID_777_" fill="#BDE1C8" d="M923.413,816.114l-1.065-1.232c13.687-11.835,23.86-21.517,32.987-31.394l1.195,1.105&#10;&#9;&#9;&#9;C947.361,794.517,937.147,804.237,923.413,816.114z"/>
	</g>
	<g id="XMLID_775_">
		<path id="XMLID_776_" fill="#BDE1C8" d="M635.637,157.763l-0.266-1.606c21.216-3.5,43.888-5.543,67.386-6.075l0.037,1.628&#10;&#9;&#9;&#9;C679.372,152.24,656.777,154.277,635.637,157.763z"/>
	</g>
	<g id="XMLID_773_">
		<path id="XMLID_774_" fill="#BDE1C8" d="M391.357,306.984l-1.279-1.008c1.327-1.684,2.638-3.382,3.948-5.08&#10;&#9;&#9;&#9;c2.734-3.542,5.561-7.206,8.509-10.685c1.794-2.118,3.954-3.971,6.042-5.764c2.296-1.97,4.465-3.83,6.183-6.007l1.279,1.008&#10;&#9;&#9;&#9;c-1.815,2.301-4.147,4.301-6.401,6.235c-2.04,1.75-4.15,3.56-5.861,5.58c-2.923,3.451-5.739,7.099-8.461,10.627&#10;&#9;&#9;&#9;C394.001,303.594,392.688,305.296,391.357,306.984z"/>
	</g>
	<g id="XMLID_771_">
		<path id="XMLID_772_" fill="#BDE1C8" d="M326.517,637.428c-6.471-23.894-10.709-48.418-12.597-72.892l1.624-0.126&#10;&#9;&#9;&#9;c1.88,24.373,6.101,48.796,12.545,72.591L326.517,637.428z"/>
	</g>
	<g id="XMLID_769_">
		<path id="XMLID_770_" fill="#BDE1C8" d="M485.613,860.312c-12.471-8.05-24.628-17.057-36.133-26.77l1.051-1.244&#10;&#9;&#9;&#9;c11.452,9.668,23.552,18.633,35.964,26.646L485.613,860.312z"/>
	</g>
	<g id="XMLID_141_">
		<path id="XMLID_739_" fill="#BDE1C8" d="M997.549,791.605l-1.199-1.103c6.517-7.094,12.832-14.545,18.77-22.146l1.283,1.002&#10;&#9;&#9;&#9;C1010.438,776.995,1004.095,784.479,997.549,791.605z"/>
	</g>
</g></svg>