<svg xmlns="http://www.w3.org/2000/svg"  viewBox="0 0 64 64" width="64px" height="64px"><ellipse cx="32" cy="61" opacity=".3" rx="19" ry="3"/><path fill="#fd3c4f" d="M53.871,46H14V14h39.72c1.697,0,2.623,1.981,1.534,3.283l-8.689,10.389	c-0.911,1.09-0.934,2.669-0.053,3.784l8.929,11.304C56.477,44.072,55.543,46,53.871,46z"/><path fill="orange" d="M19,8.5C19,5.462,16.538,3,13.5,3S8,5.462,8,8.5c0,2.136,1.22,3.984,3,4.895V53.5	c0,1.381,1.119,2.5,2.5,2.5s2.5-1.119,2.5-2.5V13.395C17.78,12.484,19,10.636,19,8.5z"/><path fill="#fff" d="M18.911,7.538c-0.053-0.292-0.127-0.577-0.223-0.852C17.938,4.541,15.901,3,13.5,3	C10.462,3,8,5.462,8,8.5c0,2.136,1.22,3.984,3,4.895V35c2.761,0,5-2.238,5-5V13.978c0-0.191-0.012-0.38-0.034-0.566	c0.162-0.081,0.313-0.179,0.465-0.275c0.062-0.039,0.129-0.072,0.19-0.114c0.148-0.102,0.284-0.218,0.421-0.333	c0.053-0.045,0.112-0.084,0.163-0.131c0.134-0.122,0.256-0.258,0.378-0.393c0.045-0.049,0.095-0.094,0.138-0.145	c0.116-0.139,0.218-0.289,0.321-0.439c0.038-0.056,0.083-0.107,0.119-0.165c0.093-0.148,0.171-0.307,0.25-0.464	c0.034-0.067,0.075-0.129,0.106-0.198c0.071-0.157,0.125-0.323,0.181-0.487c0.026-0.076,0.06-0.147,0.083-0.224	c0.051-0.175,0.084-0.357,0.117-0.539c0.013-0.072,0.036-0.141,0.047-0.215C18.981,9.031,19,8.768,19,8.5	c0-0.301-0.029-0.595-0.077-0.883C18.918,7.591,18.915,7.564,18.911,7.538z" opacity=".3"/><path d="M55.441,42.76l-8.929-11.304c-0.881-1.115-0.859-2.695,0.053-3.784l8.689-10.389	c0.55-0.657,0.584-1.486,0.267-2.147c-2.021-1-4.533-0.544-6.045,1.263l-6.748,8.066c-2.417,2.892-2.476,7.136-0.14,10.091	L47.679,41H25c-2.761,0-5,2.238-5,5h33.871C55.543,46,56.477,44.072,55.441,42.76z" opacity=".15"/><path fill="none" stroke="#fff" stroke-linecap="round" stroke-miterlimit="10" stroke-width="3" d="M11.5,8.5	c0-1.105,0.895-2,2-2"/></svg>