<svg xmlns="http://www.w3.org/2000/svg"  viewBox="0 0 64 64" width="64px" height="64px"><path fill="orange" d="M37.682,13.663l-12.349,2.906c-1.205,0.284-2.46,0.284-3.665,0l-10.385-2.444	C8.84,13.551,6.5,15.404,6.5,17.913v28.711c0,1.392,0.958,2.601,2.313,2.92l11.869,2.793c1.853,0.436,3.783,0.436,5.636,0	l12.349-2.906c1.205-0.284,2.46-0.284,3.665,0l10.385,2.444c2.443,0.575,4.783-1.279,4.783-3.788V19.376	c0-1.392-0.958-2.601-2.313-2.92l-11.869-2.793C41.465,13.227,39.535,13.227,37.682,13.663z"/><ellipse cx="32" cy="61" opacity=".3" rx="23.25" ry="3"/><path d="M37.682,13.663l-12.349,2.906c-0.603,0.142-1.217,0.213-1.832,0.213v35.882	c0.946,0,1.891-0.109,2.818-0.327l12.349-2.906c0.603-0.142,1.217-0.213,1.832-0.213V13.336	C39.554,13.336,38.609,13.445,37.682,13.663z" opacity=".15"/><path fill="#fff" d="M21.668,16.569l-10.385-2.444C8.84,13.551,6.5,15.404,6.5,17.913V28 c2.762,0,5-2.239,5-5v-3.687l5.778,1.36c2.691,0.629,5.38-1.034,6.013-3.722c0.014-0.06,0.012-0.12,0.024-0.18 C22.762,16.758,22.21,16.696,21.668,16.569z" opacity=".3"/><path d="M52.5,34v11.359c0,0.654-0.618,1.132-1.251,0.968l-4.492-1.167 c-2.808-0.729-5.705,1.093-6.193,4.036c0.009,0.011,0.013,0.015,0.022,0.027c0.586,0.006,1.172,0.073,1.746,0.208l10.385,2.444 c2.443,0.575,4.783-1.279,4.783-3.788V29C54.738,29,52.5,31.239,52.5,34z" opacity=".15"/><path fill="none" stroke="#fff" stroke-linecap="round" stroke-linejoin="round" stroke-miterlimit="10" stroke-width="3" d="M10.5,22.5v-2.924c0-0.645,0.601-1.121,1.229-0.973l3.178,0.748"/></svg>